# xmcd
#
# Track frame offsets: 
#        150
#        19975
#        39119
#        56390
#        72810
#        94725
#        113112
#        131695
#        155084
#
# Disc length: 2380 seconds
#
# Revision: 0
# Processed by: cddbd v1.5.2PL0 Copyright (c) Steve Scherf et al.
# Submitted via: ExactAudioCopy v0.99pb4
#
DISCID=70094a09
DTITLE=Join the Revolution  - Revolution Blue
DYEAR=2008
DGENRE=Blues/Rock
TTITLE0=He Don't Love You
TTITLE1=Speak My Mind
TTITLE2=Caught in Your Spell
TTITLE3=That Ain't Right
TTITLE4=Through the Years
TTITLE5=Feelin' Free
TTITLE6=I Am Falling
TTITLE7=Come Home
TTITLE8=On My Way
EXTD=
EXTT0=
EXTT1=
EXTT2=
EXTT3=
EXTT4=
EXTT5=
EXTT6=
EXTT7=
EXTT8=
PLAYORDER=
